# xmcd
#
# Track frame offsets:
#	179
#	10605
#	23531
#	37894
#	50533
#	62020
#	75287
#	89964
#	102450
#	117515
#
# Disc length: 1746 seconds
# Revision: 4
# Processed by: cddbd v1.5.2PL0 Copyright (c) Steve Scherf et al.
# Submitted via: dBpowerAMP V12.0
#
DISCID=7306d00a
DTITLE=Johnny Cash - Complete Columbia Album Collection, Disc 56 [Rainbow]
DYEAR=1985
DGENRE=Country
TTITLE0=I'm Leaving Now
TTITLE1=Here Comes That Rainbow Again
TTITLE2=They're All the Same
TTITLE3=Easy Street
TTITLE4=Have You Ever Seen the Rain?
TTITLE5=You Beat All I Ever Saw
TTITLE6=Unwed Fathers
TTITLE7=Love Me Like You Used To
TTITLE8=Casey's Last Ride
TTITLE9=Borderline (A Musical Whodunit)
EXTD=
EXTT0=
EXTT1=
EXTT2=
EXTT3=
EXTT4=
EXTT5=
EXTT6=
EXTT7=
EXTT8=
EXTT9=
PLAYORDER=
